<svg height="250" width="250" viewBox="0 0 21 21" style="baseline-shift: 0px; clip-rule: nonzero; color: rgb(51, 51, 51); color-interpolation: srgb; color-interpolation-filters: linearrgb; color-rendering: auto; cursor: auto; direction: ltr; display: block; fill: rgb(0, 0, 0); fill-opacity: 1; fill-rule: nonzero; font: 400 14px / 21px Roboto, Arial, Helvetica, sans-serif; image-rendering: auto; letter-spacing: normal; marker: none; overflow: hidden; paint-order: normal; pointer-events: auto; shape-rendering: auto; stroke: none; stroke-dasharray: none; stroke-dashoffset: 0px; stroke-linecap: butt; stroke-linejoin: miter; stroke-miterlimit: 4; stroke-opacity: 1; stroke-width: 1px; text-anchor: start; text-decoration: none solid rgb(51, 51, 51); text-rendering: auto; visibility: visible; word-spacing: 0px; writing-mode: horizontal-tb;" xmlns="http://www.w3.org/2000/svg" xmlns:xlink="http://www.w3.org/1999/xlink" version="1.1"><path fill="transparent" d="M0,0 h21v21H0z" shape-rendering="crispEdges" style="baseline-shift: 0px; fill: transparent; paint-order: normal; shape-rendering: crispedges; text-decoration: none solid rgb(51, 51, 51);"></path><path fill="#000000" d="M0 0h7v1H0zM9 0h1v1H9zM11 0h2v1H11zM14,0 h7v1H14zM0 1h1v1H0zM6 1h1v1H6zM8 1h1v1H8zM12 1h1v1H12zM14 1h1v1H14zM20,1 h1v1H20zM0 2h1v1H0zM2 2h3v1H2zM6 2h1v1H6zM8 2h1v1H8zM10 2h2v1H10zM14 2h1v1H14zM16 2h3v1H16zM20,2 h1v1H20zM0 3h1v1H0zM2 3h3v1H2zM6 3h1v1H6zM8 3h2v1H8zM11 3h1v1H11zM14 3h1v1H14zM16 3h3v1H16zM20,3 h1v1H20zM0 4h1v1H0zM2 4h3v1H2zM6 4h1v1H6zM8 4h4v1H8zM14 4h1v1H14zM16 4h3v1H16zM20,4 h1v1H20zM0 5h1v1H0zM6 5h1v1H6zM8 5h1v1H8zM10 5h1v1H10zM12 5h1v1H12zM14 5h1v1H14zM20,5 h1v1H20zM0 6h7v1H0zM8 6h1v1H8zM10 6h1v1H10zM12 6h1v1H12zM14,6 h7v1H14zM10 7h1v1H10zM12 7h1v1H12zM2 8h1v1H2zM5 8h5v1H5zM12 8h2v1H12zM15 8h5v1H15zM0 9h3v1H0zM4 9h2v1H4zM7 9h1v1H7zM9 9h1v1H9zM13 9h2v1H13zM17 9h1v1H17zM20,9 h1v1H20zM1 10h6v1H1zM10 10h1v1H10zM12 10h1v1H12zM14 10h1v1H14zM18 10h1v1H18zM20,10 h1v1H20zM4 11h2v1H4zM9 11h2v1H9zM12 11h1v1H12zM16 11h2v1H16zM0 12h4v1H0zM5 12h2v1H5zM8 12h2v1H8zM11 12h1v1H11zM14 12h1v1H14zM20,12 h1v1H20zM8 13h1v1H8zM10 13h1v1H10zM12 13h1v1H12zM17 13h1v1H17zM20,13 h1v1H20zM0 14h7v1H0zM8 14h2v1H8zM13 14h5v1H13zM20,14 h1v1H20zM0 15h1v1H0zM6 15h1v1H6zM8 15h2v1H8zM11 15h1v1H11zM13 15h5v1H13zM20,15 h1v1H20zM0 16h1v1H0zM2 16h3v1H2zM6 16h1v1H6zM9 16h1v1H9zM11 16h1v1H11zM15 16h3v1H15zM20,16 h1v1H20zM0 17h1v1H0zM2 17h3v1H2zM6 17h1v1H6zM9 17h10v1H9zM0 18h1v1H0zM2 18h3v1H2zM6 18h1v1H6zM8 18h1v1H8zM10 18h1v1H10zM12 18h1v1H12zM14 18h1v1H14zM16 18h1v1H16zM19,18 h2v1H19zM0 19h1v1H0zM6 19h1v1H6zM9 19h1v1H9zM11 19h1v1H11zM13 19h2v1H13zM17 19h1v1H17zM0 20h7v1H0zM9 20h3v1H9zM13 20h1v1H13zM15 20h2v1H15zM20,20 h1v1H20z" shape-rendering="crispEdges" style="baseline-shift: 0px; paint-order: normal; shape-rendering: crispedges; text-decoration: none solid rgb(51, 51, 51);"></path><image height="21" width="21" x="0" y="0" preserveAspectRatio="none" opacity="1" style="baseline-shift: 0px; overflow: hidden; paint-order: normal; text-decoration: none solid rgb(51, 51, 51);"></image></svg>