<svg height="250" width="250" viewBox="0 0 21 21" style="baseline-shift: 0px; clip-rule: nonzero; color: rgb(51, 51, 51); color-interpolation: srgb; color-interpolation-filters: linearrgb; color-rendering: auto; cursor: auto; direction: ltr; display: block; fill: rgb(0, 0, 0); fill-opacity: 1; fill-rule: nonzero; font: 400 14px / 21px Roboto, Arial, Helvetica, sans-serif; image-rendering: auto; letter-spacing: normal; marker: none; overflow: hidden; paint-order: normal; pointer-events: auto; shape-rendering: auto; stroke: none; stroke-dasharray: none; stroke-dashoffset: 0px; stroke-linecap: butt; stroke-linejoin: miter; stroke-miterlimit: 4; stroke-opacity: 1; stroke-width: 1px; text-anchor: start; text-decoration: none solid rgb(51, 51, 51); text-rendering: auto; visibility: visible; word-spacing: 0px; writing-mode: horizontal-tb;" xmlns="http://www.w3.org/2000/svg" xmlns:xlink="http://www.w3.org/1999/xlink" version="1.1"><path fill="transparent" d="M0,0 h21v21H0z" shape-rendering="crispEdges" style="baseline-shift: 0px; fill: transparent; paint-order: normal; shape-rendering: crispedges; text-decoration: none solid rgb(51, 51, 51);"></path><path fill="#000000" d="M0 0h7v1H0zM9 0h1v1H9zM11 0h2v1H11zM14,0 h7v1H14zM0 1h1v1H0zM6 1h1v1H6zM8 1h1v1H8zM11 1h1v1H11zM14 1h1v1H14zM20,1 h1v1H20zM0 2h1v1H0zM2 2h3v1H2zM6 2h1v1H6zM12 2h1v1H12zM14 2h1v1H14zM16 2h3v1H16zM20,2 h1v1H20zM0 3h1v1H0zM2 3h3v1H2zM6 3h1v1H6zM8 3h2v1H8zM12 3h1v1H12zM14 3h1v1H14zM16 3h3v1H16zM20,3 h1v1H20zM0 4h1v1H0zM2 4h3v1H2zM6 4h1v1H6zM8 4h1v1H8zM10 4h1v1H10zM12 4h1v1H12zM14 4h1v1H14zM16 4h3v1H16zM20,4 h1v1H20zM0 5h1v1H0zM6 5h1v1H6zM10 5h3v1H10zM14 5h1v1H14zM20,5 h1v1H20zM0 6h7v1H0zM8 6h1v1H8zM10 6h1v1H10zM12 6h1v1H12zM14,6 h7v1H14zM8 7h1v1H8zM10 7h3v1H10zM1 8h1v1H1zM3 8h4v1H3zM8 8h7v1H8zM16 8h2v1H16zM19 8h1v1H19zM0 9h2v1H0zM4 9h1v1H4zM8 9h7v1H8zM2 10h2v1H2zM5 10h2v1H5zM8 10h1v1H8zM10 10h1v1H10zM12 10h2v1H12zM18,10 h3v1H18zM3 11h2v1H3zM7 11h1v1H7zM9 11h5v1H9zM15 11h5v1H15zM4 12h5v1H4zM10 12h2v1H10zM13 12h1v1H13zM15 12h1v1H15zM17 12h1v1H17zM20,12 h1v1H20zM8 13h2v1H8zM16 13h2v1H16zM0 14h7v1H0zM9 14h2v1H9zM12 14h3v1H12zM16 14h3v1H16zM0 15h1v1H0zM6 15h1v1H6zM8 15h1v1H8zM12 15h1v1H12zM14 15h2v1H14zM17,15 h4v1H17zM0 16h1v1H0zM2 16h3v1H2zM6 16h1v1H6zM8 16h2v1H8zM11 16h1v1H11zM14 16h2v1H14zM17 16h1v1H17zM0 17h1v1H0zM2 17h3v1H2zM6 17h1v1H6zM8 17h3v1H8zM12 17h4v1H12zM18 17h1v1H18zM0 18h1v1H0zM2 18h3v1H2zM6 18h1v1H6zM10 18h4v1H10zM16,18 h5v1H16zM0 19h1v1H0zM6 19h1v1H6zM8 19h1v1H8zM11 19h2v1H11zM15 19h1v1H15zM17,19 h4v1H17zM0 20h7v1H0zM10 20h1v1H10zM12 20h2v1H12zM16 20h1v1H16z" shape-rendering="crispEdges" style="baseline-shift: 0px; paint-order: normal; shape-rendering: crispedges; text-decoration: none solid rgb(51, 51, 51);"></path><image height="21" width="21" x="0" y="0" preserveAspectRatio="none" opacity="1" style="baseline-shift: 0px; overflow: hidden; paint-order: normal; text-decoration: none solid rgb(51, 51, 51);"></image></svg>