<svg height="250" width="250" viewBox="0 0 25 25" style="baseline-shift: 0px; clip-rule: nonzero; color: rgb(51, 51, 51); color-interpolation: srgb; color-interpolation-filters: linearrgb; color-rendering: auto; cursor: auto; direction: ltr; display: block; fill: rgb(0, 0, 0); fill-opacity: 1; fill-rule: nonzero; font: 400 14px / 21px Roboto, Arial, Helvetica, sans-serif; image-rendering: auto; letter-spacing: normal; marker: none; overflow: hidden; paint-order: normal; pointer-events: auto; shape-rendering: auto; stroke: none; stroke-dasharray: none; stroke-dashoffset: 0px; stroke-linecap: butt; stroke-linejoin: miter; stroke-miterlimit: 4; stroke-opacity: 1; stroke-width: 1px; text-anchor: start; text-decoration: none solid rgb(51, 51, 51); text-rendering: auto; visibility: visible; word-spacing: 0px; writing-mode: horizontal-tb;" xmlns="http://www.w3.org/2000/svg" xmlns:xlink="http://www.w3.org/1999/xlink" version="1.1"><path fill="transparent" d="M0,0 h25v25H0z" shape-rendering="crispEdges" style="baseline-shift: 0px; fill: transparent; paint-order: normal; shape-rendering: crispedges; text-decoration: none solid rgb(51, 51, 51);"></path><path fill="#000000" d="M0 0h7v1H0zM8 0h1v1H8zM13 0h1v1H13zM16 0h1v1H16zM18,0 h7v1H18zM0 1h1v1H0zM6 1h1v1H6zM8 1h1v1H8zM10 1h2v1H10zM14 1h3v1H14zM18 1h1v1H18zM24,1 h1v1H24zM0 2h1v1H0zM2 2h3v1H2zM6 2h1v1H6zM8 2h2v1H8zM11 2h1v1H11zM13 2h2v1H13zM16 2h1v1H16zM18 2h1v1H18zM20 2h3v1H20zM24,2 h1v1H24zM0 3h1v1H0zM2 3h3v1H2zM6 3h1v1H6zM8 3h3v1H8zM12 3h4v1H12zM18 3h1v1H18zM20 3h3v1H20zM24,3 h1v1H24zM0 4h1v1H0zM2 4h3v1H2zM6 4h1v1H6zM8 4h2v1H8zM14 4h1v1H14zM18 4h1v1H18zM20 4h3v1H20zM24,4 h1v1H24zM0 5h1v1H0zM6 5h1v1H6zM9 5h2v1H9zM12 5h2v1H12zM18 5h1v1H18zM24,5 h1v1H24zM0 6h7v1H0zM8 6h1v1H8zM10 6h1v1H10zM12 6h1v1H12zM14 6h1v1H14zM16 6h1v1H16zM18,6 h7v1H18zM8 7h1v1H8zM10 7h1v1H10zM12 7h3v1H12zM16 7h1v1H16zM1 8h2v1H1zM4 8h1v1H4zM6 8h2v1H6zM9 8h3v1H9zM14 8h3v1H14zM18 8h1v1H18zM20,8 h5v1H20zM3 9h1v1H3zM8 9h2v1H8zM11 9h1v1H11zM14 9h2v1H14zM17 9h2v1H17zM21 9h1v1H21zM23,9 h2v1H23zM2 10h5v1H2zM8 10h1v1H8zM10 10h1v1H10zM12 10h2v1H12zM16 10h2v1H16zM20 10h1v1H20zM23,10 h2v1H23zM7 11h1v1H7zM10 11h3v1H10zM15 11h2v1H15zM18 11h1v1H18zM20 11h2v1H20zM0 12h2v1H0zM3 12h1v1H3zM5 12h2v1H5zM8 12h1v1H8zM17 12h2v1H17zM23,12 h2v1H23zM2 13h1v1H2zM4 13h2v1H4zM7 13h1v1H7zM16 13h1v1H16zM18 13h1v1H18zM22,13 h3v1H22zM0 14h1v1H0zM2 14h1v1H2zM4 14h1v1H4zM6 14h2v1H6zM9 14h2v1H9zM12 14h1v1H12zM16 14h1v1H16zM18,14 h7v1H18zM1 15h1v1H1zM16 15h2v1H16zM24,15 h1v1H24zM0 16h1v1H0zM4 16h1v1H4zM6 16h1v1H6zM9 16h2v1H9zM12 16h9v1H12zM23,16 h2v1H23zM8 17h3v1H8zM15 17h2v1H15zM20 17h1v1H20zM24,17 h1v1H24zM0 18h7v1H0zM8 18h2v1H8zM12 18h1v1H12zM15 18h2v1H15zM18 18h1v1H18zM20 18h1v1H20zM22,18 h3v1H22zM0 19h1v1H0zM6 19h1v1H6zM9 19h2v1H9zM14 19h1v1H14zM16 19h1v1H16zM20 19h1v1H20zM24,19 h1v1H24zM0 20h1v1H0zM2 20h3v1H2zM6 20h1v1H6zM8 20h1v1H8zM10 20h1v1H10zM12 20h1v1H12zM16 20h5v1H16zM23 20h1v1H23zM0 21h1v1H0zM2 21h3v1H2zM6 21h1v1H6zM9 21h1v1H9zM11 21h2v1H11zM19 21h2v1H19zM23 21h1v1H23zM0 22h1v1H0zM2 22h3v1H2zM6 22h1v1H6zM8 22h3v1H8zM12 22h1v1H12zM15 22h2v1H15zM19 22h4v1H19zM24,22 h1v1H24zM0 23h1v1H0zM6 23h1v1H6zM8 23h1v1H8zM10 23h1v1H10zM13 23h4v1H13zM18 23h3v1H18zM23 23h1v1H23zM0 24h7v1H0zM9 24h3v1H9zM15 24h7v1H15zM23,24 h2v1H23z" shape-rendering="crispEdges" style="baseline-shift: 0px; paint-order: normal; shape-rendering: crispedges; text-decoration: none solid rgb(51, 51, 51);"></path><image height="25" width="25" x="0" y="0" preserveAspectRatio="none" opacity="1" style="baseline-shift: 0px; overflow: hidden; paint-order: normal; text-decoration: none solid rgb(51, 51, 51);"></image></svg>